# xmcd CD database file
#
# Track frame offsets:
#	150
#	19805
#	37010
#	59187
#	79630
#	93349
#	112247
#	128865
#	143168
#	160723
#	179685
#	196347
#	216088
#	240221
#
# Disc length: 3496 seconds
#
# Revision: 6
# Processed by: cddbd v1.5.2PL0 Copyright (c) Steve Scherf et al.
# Submitted via: CDex 1.51
#
DISCID=c60da60e
DTITLE=Carola - Jul i Betlehem
DYEAR=1999
DGENRE=Other
TTITLE0=O, helga natt 
TTITLE1=O Betlehem, du lilla stad
TTITLE2=Himlen i min famn
TTITLE3=Little drummer boy
TTITLE4=Nu tändas tusen juleljus
TTITLE5=En stjärna lyser så klar
TTITLE6=Härlig är jorden
TTITLE7=I wonder as I wander
TTITLE8=Gläns över sjö och strand
TTITLE9=Mitt hjerte alltid vanker
TTITLE10=Mary's boychild
TTITLE11=Jag är så glad var julenatt
TTITLE12=Stilla natt
TTITLE13=Dagen är kommen
EXTD=Chrismas Songs YEAR: 1999
EXTT0=Chrismas Songs
EXTT1=Chrismas Songs
EXTT2=Chrismas Songs
EXTT3=Chrismas Songs
EXTT4=Chrismas Songs
EXTT5=Chrismas Songs
EXTT6=Chrismas Songs
EXTT7=Chrismas Songs
EXTT8=Chrismas Songs
EXTT9=Chrismas Songs
EXTT10=Chrismas Songs
EXTT11=Chrismas Songs
EXTT12=Chrismas Songs
EXTT13=Chrismas Songs
PLAYORDER=
